<svg width="24" height="24" viewBox="0 0 24 24" fill="none" xmlns="http://www.w3.org/2000/svg">
<path d="M17.2188 6.79345C17.2188 6.5173 16.9949 6.29345 16.7188 6.29346C16.4427 6.29346 16.2188 6.51733 16.2188 6.79347L16.7188 6.79346L17.2188 6.79345ZM3.80735 12.868C3.61209 13.0633 3.61209 13.3799 3.80735 13.5751L6.98933 16.7571C7.18459 16.9524 7.50117 16.9524 7.69644 16.7571C7.8917 16.5619 7.8917 16.2453 7.69644 16.05L4.86801 13.2216L7.69644 10.3932C7.8917 10.1979 7.8917 9.88131 7.69644 9.68605C7.50117 9.49079 7.18459 9.49079 6.98933 9.68605L3.80735 12.868ZM16.7188 6.79346L16.2188 6.79347L16.2189 9.22151L16.7189 9.2215L17.2189 9.22149L17.2188 6.79345L16.7188 6.79346ZM12.7189 13.2216L12.7189 12.7216L4.1609 12.7216L4.1609 13.2216L4.1609 13.7216L12.7189 13.7216L12.7189 13.2216ZM16.7189 9.2215L16.2189 9.22151C16.2189 11.1545 14.6519 12.7216 12.7189 12.7216L12.7189 13.2216L12.7189 13.7216C15.2042 13.7216 17.2189 11.7068 17.2189 9.22149L16.7189 9.2215Z" fill="black"/>
</svg>
