<svg width="24" height="24" viewBox="0 0 24 24" fill="none" xmlns="http://www.w3.org/2000/svg">
<path d="M6.78118 17.2066C6.78119 17.4827 7.00505 17.7065 7.2812 17.7065C7.55734 17.7065 7.78119 17.4827 7.78118 17.2065L7.28118 17.2065L6.78118 17.2066ZM20.1927 11.132C20.3879 10.9367 20.3879 10.6201 20.1927 10.4249L17.0107 7.24288C16.8154 7.04762 16.4988 7.04762 16.3036 7.24288C16.1083 7.43815 16.1083 7.75473 16.3036 7.94999L19.132 10.7784L16.3036 13.6068C16.1083 13.8021 16.1083 14.1187 16.3036 14.314C16.4988 14.5092 16.8154 14.5092 17.0107 14.314L20.1927 11.132ZM7.28118 17.2065L7.78118 17.2065L7.78113 14.7785L7.28113 14.7785L6.78113 14.7785L6.78118 17.2066L7.28118 17.2065ZM11.2811 10.7784L11.2811 11.2784L19.8391 11.2784L19.8391 10.7784L19.8391 10.2784L11.2811 10.2784L11.2811 10.7784ZM7.28113 14.7785L7.78113 14.7785C7.78109 12.8455 9.34811 11.2784 11.2811 11.2784L11.2811 10.7784L11.2811 10.2784C8.79582 10.2784 6.78108 12.2932 6.78113 14.7785L7.28113 14.7785Z" fill="black"/>
</svg>
