<svg width="36" height="28" viewBox="0 0 36 28" fill="none" xmlns="http://www.w3.org/2000/svg">
<path d="M18.5657 12.3084C18.6713 11.8743 18.4051 11.4368 17.971 11.3311L6.18177 8.4617C5.7477 8.35605 5.31017 8.62229 5.20452 9.05636L3.10028 17.7018C2.57204 19.8722 3.90322 22.0598 6.07357 22.5881L11.5752 23.9271C13.7456 24.4554 15.9332 23.1242 16.4615 20.9538L18.5657 12.3084Z" fill="white"/>
<path d="M2.67614 12.6035C2.88744 11.7354 3.7625 11.2029 4.63064 11.4142C5.49877 11.6255 6.03125 12.5006 5.81995 13.3687C5.60865 14.2368 4.7336 14.7693 3.86546 14.558L3.48287 16.1299C5.21915 16.5525 6.96926 15.4876 7.39185 13.7513C7.81445 12.015 6.7495 10.2649 5.01323 9.84231C3.27695 9.41971 1.52684 10.4847 1.10424 12.2209C0.681644 13.9572 1.74659 15.7073 3.48287 16.1299L3.86546 14.558C2.99732 14.3467 2.46485 13.4717 2.67614 12.6035Z" fill="white"/>
<path d="M17.3901 7.69748C17.3139 7.2573 17.6089 6.83863 18.049 6.76235L30.0043 4.6906C30.4445 4.61432 30.8632 4.90932 30.9394 5.3495L32.4587 14.1167C32.8401 16.3176 31.3651 18.411 29.1642 18.7924L23.5851 19.7592C21.3842 20.1406 19.2908 18.6656 18.9094 16.4647L17.3901 7.69748Z" fill="white"/>
<path d="M33.2241 9.05836C33.0715 8.178 32.2342 7.588 31.3538 7.74055C30.4734 7.89311 29.8834 8.73046 30.036 9.61082C30.1886 10.4912 31.0259 11.0812 31.9063 10.9286L32.1825 12.5227C30.4218 12.8278 28.7471 11.6478 28.442 9.88706C28.1368 8.12633 29.3168 6.45164 31.0776 6.14652C32.8383 5.8414 34.513 7.0214 34.8181 8.78212C35.1232 10.5428 33.9432 12.2175 32.1825 12.5227L31.9063 10.9286C32.7866 10.7761 33.3766 9.93872 33.2241 9.05836Z" fill="white"/>
</svg>
