<svg width="32" height="32" viewBox="0 0 32 32" fill="none" xmlns="http://www.w3.org/2000/svg">
<g clip-path="url(#clip0_2424_25)">
<mask id="mask0_2424_25" style="mask-type:alpha" maskUnits="userSpaceOnUse" x="11" y="2" width="24" height="31">
<path d="M33.7698 2.5V18.0176C33.7698 20.0528 32.8162 21.9705 31.1937 23.1992L21.6868 30.3984L20.8489 31.0332L20.8851 29.9824L21.2464 19.5186C21.337 16.8897 21.0495 14.261 20.3929 11.7139C20.1602 10.8117 19.3461 10.1816 18.4144 10.1816H11.8851V4C11.8851 3.17157 12.5566 2.5 13.3851 2.5H33.7698Z" fill="white" stroke="black"/>
</mask>
<g mask="url(#mask0_2424_25)">
<path d="M14.3851 11.6471C14.3851 11.2897 14.6484 11 14.9733 11L23.7968 11C24.1217 11 24.3851 11.2897 24.3851 11.6471L24.3851 18.7647C24.3851 20.5515 23.0683 22 21.4439 22L17.3262 22C15.7019 22 14.3851 20.5515 14.3851 18.7647L14.3851 11.6471Z" fill="white"/>
<path d="M23.8851 11.25C22.6674 11.25 21.6376 11.7368 20.8958 12.5908C20.1449 13.4556 19.6351 14.7654 19.6351 16.4648C19.6351 18.4033 20.0194 18.5551 20.0706 18.582C20.1927 18.6464 20.4367 18.7141 20.9681 18.7383C21.5085 18.7629 22.1035 18.7402 22.9564 18.7402C24.4137 18.7402 26.0612 18.4665 27.2943 17.8486C28.4942 17.2473 29.1351 16.4296 29.1351 15.2939C29.135 13.9818 28.5355 13.0178 27.5901 12.3398C26.6096 11.6367 25.2521 11.25 23.8851 11.25Z" stroke="white" stroke-width="2.5"/>
<path d="M25.4886 9.62133C25.4289 9.26279 25.1187 9 24.7552 9H19.3851H14.015C13.6515 9 13.3413 9.26279 13.2815 9.62133L12.9757 11.4562C12.5846 13.8026 12.5846 16.1974 12.9757 18.5438C13.2119 19.9612 14.4382 21 15.8752 21H22.895C24.3319 21 25.5582 19.9612 25.7944 18.5438C26.1855 16.1974 26.1855 13.8026 25.7944 11.4562L25.4886 9.62133Z" fill="white"/>
</g>
<path d="M17 15.3283C17 14.9709 16.7366 14.6812 16.4118 14.6812L7.58823 14.6812C7.26336 14.6812 7 14.9709 7 15.3283L7 22.4459C7 24.2327 8.31681 25.6812 9.94118 25.6812L14.0588 25.6812C15.6832 25.6812 17 24.2327 17 22.4459L17 15.3283Z" fill="white"/>
<path d="M7.5 14.9312C8.71772 14.9312 9.74751 15.418 10.4893 16.272C11.2401 17.1368 11.75 18.4467 11.75 20.1461C11.7499 22.0845 11.3656 22.2363 11.3145 22.2632C11.1924 22.3276 10.9483 22.3953 10.417 22.4195C9.87661 22.4441 9.28158 22.4215 8.42871 22.4214C6.97138 22.4214 5.32386 22.1477 4.09082 21.5298C2.89085 20.9285 2.25 20.1108 2.25 18.9752C2.25005 17.6631 2.84957 16.699 3.79492 16.0211C4.77549 15.3179 6.13296 14.9312 7.5 14.9312Z" stroke="white" stroke-width="2.5"/>
<path d="M5.89645 13.3025C5.9562 12.944 6.26641 12.6812 6.6299 12.6812H12H17.3701C17.7336 12.6812 18.0438 12.944 18.1036 13.3025L18.4094 15.1374C18.8004 17.4838 18.8004 19.8787 18.4094 22.225C18.1731 23.6424 16.9468 24.6812 15.5099 24.6812H8.49009C7.05317 24.6812 5.82686 23.6424 5.59063 22.225C5.19957 19.8787 5.19957 17.4838 5.59063 15.1374L5.89645 13.3025Z" fill="white"/>
</g>
<defs>
<clipPath id="clip0_2424_25">
<rect width="32" height="32" fill="white"/>
</clipPath>
</defs>
</svg>
